<svg width="21" height="21" viewBox="0 0 21 21" fill="none" xmlns="http://www.w3.org/2000/svg">
<g clip-path="url(#clip0)">
<path d="M5.73931 9.87282C6.99665 12.2305 8.97272 14.1591 11.3644 15.3587L13.1531 13.5217C13.3766 13.2926 13.7042 13.226 13.9939 13.3176C14.9348 13.6259 15.943 13.7925 16.9805 13.7925C17.443 13.7925 17.8228 14.1632 17.8341 14.6256L17.905 17.5414C17.9162 18.0037 17.5544 18.3745 17.0919 18.3745C9.2669 18.3745 2.77105 12.0347 2.58081 4.21199C2.56956 3.74963 2.93555 3.37891 3.39388 3.37891L6.31055 3.37891C6.77305 3.37891 7.1529 3.74963 7.16414 4.21199C7.18937 5.24919 7.38045 6.25306 7.71147 7.18611C7.81013 7.47353 7.75146 7.8026 7.52787 8.0317L5.73931 9.87282V9.87282Z" fill="#20C186"/>
</g>
<defs>
<clipPath id="clip0">
<rect width="20" height="20" fill="white" transform="matrix(1 0 0.0243126 0.999704 0 0.878906)"/>
</clipPath>
</defs>
</svg>
