<svg width="16" height="16" viewBox="0 0 16 16" fill="none" xmlns="http://www.w3.org/2000/svg">
<path d="M4.3259 7.23303C5.26613 9.03646 6.77769 10.5117 8.62878 11.4293L10.0652 10.0242C10.2448 9.84896 10.5027 9.79798 10.728 9.86808C11.4593 10.1039 12.2461 10.2313 13.059 10.2313C13.4214 10.2313 13.7119 10.5149 13.7119 10.8686V13.099C13.7119 13.4526 13.4214 13.7362 13.059 13.7362C6.92787 13.7362 1.95898 8.8867 1.95898 2.90288C1.95898 2.5492 2.25281 2.26562 2.61193 2.26562H4.89722C5.2596 2.26562 5.55016 2.5492 5.55016 2.90288C5.55016 3.69626 5.68075 4.46415 5.92234 5.17788C5.99416 5.39773 5.94193 5.64945 5.76237 5.82469L4.3259 7.23303Z" fill="#0070FF"/>
</svg>
