<svg width="16" height="16" viewBox="0 0 16 16" fill="none" xmlns="http://www.w3.org/2000/svg">
<path d="M4.3259 6.87951C5.26613 8.68294 6.77769 10.1582 8.62878 11.0758L10.0652 9.67069C10.2448 9.49544 10.5027 9.44446 10.728 9.51456C11.4593 9.75034 12.2461 9.8778 13.059 9.8778C13.4214 9.8778 13.7119 10.1614 13.7119 10.5151V12.7454C13.7119 13.0991 13.4214 13.3827 13.059 13.3827C6.92787 13.3827 1.95898 8.53319 1.95898 2.54936C1.95898 2.19569 2.25281 1.91211 2.61193 1.91211H4.89722C5.2596 1.91211 5.55016 2.19569 5.55016 2.54936C5.55016 3.34275 5.68075 4.11064 5.92234 4.82436C5.99416 5.04422 5.94193 5.29593 5.76237 5.47118L4.3259 6.87951V6.87951Z" fill="#20C186"/>
</svg>
