<svg width="14" height="14" viewBox="0 0 14 14" fill="none" xmlns="http://www.w3.org/2000/svg">
<path fill-rule="evenodd" clip-rule="evenodd" d="M7.00033 1.16602C3.78033 1.16602 1.16699 3.77935 1.16699 6.99935C1.16699 10.2193 3.78033 12.8327 7.00033 12.8327C10.2203 12.8327 12.8337 10.2193 12.8337 6.99935C12.8337 3.77935 10.2203 1.16602 7.00033 1.16602ZM7.00033 11.666C4.42199 11.666 2.33366 9.57768 2.33366 6.99935C2.33366 4.42102 4.42199 2.33268 7.00033 2.33268C9.57866 2.33268 11.667 4.42102 11.667 6.99935C11.667 9.57768 9.57866 11.666 7.00033 11.666ZM7.00033 9.91601C8.61116 9.91601 9.91699 8.61018 9.91699 6.99935C9.91699 5.38852 8.61116 4.08268 7.00033 4.08268C5.38949 4.08268 4.08366 5.38852 4.08366 6.99935C4.08366 8.61018 5.38949 9.91601 7.00033 9.91601Z" fill="#EB5050"/>
</svg>
